{
	"asset":{
		"generator":"Khronos glTF Blender I/O v4.4.56",
		"version":"2.0"
	},
	"extensionsUsed":[
		"KHR_materials_clearcoat",
		"KHR_materials_specular"
	],
	"scene":0,
	"scenes":[
		{
			"name":"Scene",
			"nodes":[
				62
			]
		}
	],
	"nodes":[
		{
			"mesh":0,
			"name":"Object_10"
		},
		{
			"mesh":1,
			"name":"Object_11"
		},
		{
			"mesh":2,
			"name":"Object_12"
		},
		{
			"mesh":3,
			"name":"Object_13"
		},
		{
			"mesh":4,
			"name":"Object_14"
		},
		{
			"mesh":5,
			"name":"Object_15"
		},
		{
			"mesh":6,
			"name":"Object_16"
		},
		{
			"mesh":7,
			"name":"Object_17"
		},
		{
			"mesh":8,
			"name":"Object_18"
		},
		{
			"mesh":9,
			"name":"Object_19"
		},
		{
			"mesh":10,
			"name":"Object_2"
		},
		{
			"mesh":11,
			"name":"Object_20"
		},
		{
			"mesh":12,
			"name":"Object_21"
		},
		{
			"mesh":13,
			"name":"Object_22"
		},
		{
			"mesh":14,
			"name":"Object_23"
		},
		{
			"mesh":15,
			"name":"Object_24"
		},
		{
			"mesh":16,
			"name":"Object_25"
		},
		{
			"mesh":17,
			"name":"Object_26"
		},
		{
			"mesh":18,
			"name":"Object_27"
		},
		{
			"mesh":19,
			"name":"Object_28"
		},
		{
			"mesh":20,
			"name":"Object_29"
		},
		{
			"mesh":21,
			"name":"Object_3"
		},
		{
			"mesh":22,
			"name":"Object_30"
		},
		{
			"mesh":23,
			"name":"Object_31"
		},
		{
			"mesh":24,
			"name":"Object_32"
		},
		{
			"mesh":25,
			"name":"Object_33"
		},
		{
			"mesh":26,
			"name":"Object_34"
		},
		{
			"mesh":27,
			"name":"Object_35"
		},
		{
			"mesh":28,
			"name":"Object_36"
		},
		{
			"mesh":29,
			"name":"Object_37"
		},
		{
			"mesh":30,
			"name":"Object_38"
		},
		{
			"mesh":31,
			"name":"Object_39"
		},
		{
			"mesh":32,
			"name":"Object_4"
		},
		{
			"mesh":33,
			"name":"Object_40"
		},
		{
			"mesh":34,
			"name":"Object_41"
		},
		{
			"mesh":35,
			"name":"Object_42"
		},
		{
			"mesh":36,
			"name":"Object_43"
		},
		{
			"mesh":37,
			"name":"Object_44"
		},
		{
			"mesh":38,
			"name":"Object_45"
		},
		{
			"mesh":39,
			"name":"Object_46"
		},
		{
			"mesh":40,
			"name":"Object_47"
		},
		{
			"mesh":41,
			"name":"Object_48"
		},
		{
			"mesh":42,
			"name":"Object_49"
		},
		{
			"mesh":43,
			"name":"Object_5"
		},
		{
			"mesh":44,
			"name":"Object_50"
		},
		{
			"mesh":45,
			"name":"Object_51"
		},
		{
			"mesh":46,
			"name":"Object_52"
		},
		{
			"mesh":47,
			"name":"Object_53"
		},
		{
			"mesh":48,
			"name":"Object_54"
		},
		{
			"mesh":49,
			"name":"Object_55"
		},
		{
			"mesh":50,
			"name":"Object_56"
		},
		{
			"mesh":51,
			"name":"Object_57"
		},
		{
			"mesh":52,
			"name":"Object_58"
		},
		{
			"mesh":53,
			"name":"Object_59"
		},
		{
			"mesh":54,
			"name":"Object_6"
		},
		{
			"mesh":55,
			"name":"Object_60"
		},
		{
			"mesh":56,
			"name":"Object_61"
		},
		{
			"mesh":57,
			"name":"Object_62"
		},
		{
			"mesh":58,
			"name":"Object_63"
		},
		{
			"mesh":59,
			"name":"Object_7"
		},
		{
			"mesh":60,
			"name":"Object_8"
		},
		{
			"mesh":61,
			"name":"Object_9"
		},
		{
			"children":[
				0,
				1,
				2,
				3,
				4,
				5,
				6,
				7,
				8,
				9,
				10,
				11,
				12,
				13,
				14,
				15,
				16,
				17,
				18,
				19,
				20,
				21,
				22,
				23,
				24,
				25,
				26,
				27,
				28,
				29,
				30,
				31,
				32,
				33,
				34,
				35,
				36,
				37,
				38,
				39,
				40,
				41,
				42,
				43,
				44,
				45,
				46,
				47,
				48,
				49,
				50,
				51,
				52,
				53,
				54,
				55,
				56,
				57,
				58,
				59,
				60,
				61
			],
			"name":"rafale_group",
			"rotation":[
				-0.70710688829422,
				0,
				0,
				0.7071066498756409
			],
			"translation":[
				0,
				26.288652420043945,
				0
			]
		}
	],
	"materials":[
		{
			"doubleSided":true,
			"emissiveTexture":{
				"index":0
			},
			"extensions":{
				"KHR_materials_clearcoat":{
					"clearcoatFactor":1,
					"clearcoatRoughnessFactor":0.03999999910593033
				},
				"KHR_materials_specular":{
					"specularFactor":0.5777089595794678
				}
			},
			"name":"Rafale_Fuel_Tank",
			"pbrMetallicRoughness":{
				"baseColorFactor":[
					0.9995781183242798,
					0.9995781183242798,
					0.9995781183242798,
					1
				],
				"baseColorTexture":{
					"index":1
				},
				"metallicFactor":0.6721572875976562,
				"roughnessFactor":0.8819395899772644
			}
		},
		{
			"doubleSided":true,
			"emissiveTexture":{
				"index":2
			},
			"name":"Rafale_Mica_IR",
			"pbrMetallicRoughness":{
				"baseColorTexture":{
					"index":3
				},
				"metallicFactor":0,
				"roughnessFactor":0.9487850069999695
			}
		},
		{
			"doubleSided":true,
			"emissiveTexture":{
				"index":4
			},
			"extensions":{
				"KHR_materials_specular":{
					"specularFactor":0.4832606017589569
				}
			},
			"name":"Rafale_SBU_64",
			"pbrMetallicRoughness":{
				"baseColorTexture":{
					"index":5
				},
				"metallicFactor":0.01731552742421627,
				"roughnessFactor":0.05121499300003052
			}
		},
		{
			"doubleSided":true,
			"emissiveTexture":{
				"index":6
			},
			"name":"Rafale_Set_1_2",
			"pbrMetallicRoughness":{
				"baseColorTexture":{
					"index":7
				},
				"metallicFactor":0,
				"roughnessFactor":0.9487850069999695
			}
		},
		{
			"doubleSided":true,
			"emissiveTexture":{
				"index":8
			},
			"name":"Rafale_Set_1_1",
			"pbrMetallicRoughness":{
				"baseColorTexture":{
					"index":9
				},
				"metallicFactor":0,
				"roughnessFactor":0.9487850069999695
			}
		},
		{
			"doubleSided":true,
			"emissiveTexture":{
				"index":10
			},
			"name":"Rafale_Set_2_1",
			"pbrMetallicRoughness":{
				"baseColorTexture":{
					"index":11
				},
				"metallicFactor":0,
				"roughnessFactor":0.9487850069999695
			}
		},
		{
			"doubleSided":true,
			"emissiveTexture":{
				"index":12
			},
			"name":"Rafale_Set_3",
			"pbrMetallicRoughness":{
				"baseColorTexture":{
					"index":13
				},
				"metallicFactor":0,
				"roughnessFactor":0.9487850069999695
			}
		},
		{
			"doubleSided":true,
			"emissiveTexture":{
				"index":14
			},
			"name":"Rafale_Set_2_2",
			"pbrMetallicRoughness":{
				"baseColorTexture":{
					"index":15
				},
				"metallicFactor":0,
				"roughnessFactor":0.9487850069999695
			}
		},
		{
			"doubleSided":true,
			"emissiveTexture":{
				"index":16
			},
			"name":"Rafale_Set_5",
			"pbrMetallicRoughness":{
				"baseColorTexture":{
					"index":17
				},
				"metallicFactor":0,
				"roughnessFactor":0.9487850069999695
			}
		},
		{
			"doubleSided":true,
			"emissiveTexture":{
				"index":18
			},
			"name":"Rafale_Set_4",
			"pbrMetallicRoughness":{
				"baseColorTexture":{
					"index":19
				},
				"metallicFactor":0,
				"roughnessFactor":0.9487850069999695
			}
		},
		{
			"doubleSided":true,
			"emissiveTexture":{
				"index":20
			},
			"name":"Glass",
			"pbrMetallicRoughness":{
				"baseColorTexture":{
					"index":21
				},
				"metallicFactor":0,
				"roughnessFactor":0.9487850069999695
			}
		},
		{
			"doubleSided":true,
			"emissiveTexture":{
				"index":22
			},
			"name":"Rafale_Set_6",
			"pbrMetallicRoughness":{
				"baseColorTexture":{
					"index":23
				},
				"metallicFactor":0,
				"roughnessFactor":0.9487850069999695
			}
		},
		{
			"doubleSided":true,
			"emissiveTexture":{
				"index":24
			},
			"name":"Mirrors",
			"pbrMetallicRoughness":{
				"baseColorTexture":{
					"index":25
				},
				"metallicFactor":0,
				"roughnessFactor":0.9487850069999695
			}
		}
	],
	"meshes":[
		{
			"name":"Object_8",
			"primitives":[
				{
					"attributes":{
						"POSITION":0,
						"NORMAL":1,
						"TEXCOORD_0":2
					},
					"indices":3,
					"material":0
				}
			]
		},
		{
			"name":"Object_9",
			"primitives":[
				{
					"attributes":{
						"POSITION":4,
						"NORMAL":5,
						"TEXCOORD_0":6
					},
					"indices":7,
					"material":1
				}
			]
		},
		{
			"name":"Object_10",
			"primitives":[
				{
					"attributes":{
						"POSITION":8,
						"NORMAL":9,
						"TEXCOORD_0":10
					},
					"indices":7,
					"material":1
				}
			]
		},
		{
			"name":"Object_11",
			"primitives":[
				{
					"attributes":{
						"POSITION":11,
						"NORMAL":12,
						"TEXCOORD_0":13
					},
					"indices":14,
					"material":2
				}
			]
		},
		{
			"name":"Object_12",
			"primitives":[
				{
					"attributes":{
						"POSITION":15,
						"NORMAL":16,
						"TEXCOORD_0":17
					},
					"indices":18,
					"material":2
				}
			]
		},
		{
			"name":"Object_13",
			"primitives":[
				{
					"attributes":{
						"POSITION":19,
						"NORMAL":20,
						"TEXCOORD_0":21
					},
					"indices":22,
					"material":2
				}
			]
		},
		{
			"name":"Object_14",
			"primitives":[
				{
					"attributes":{
						"POSITION":23,
						"NORMAL":24,
						"TEXCOORD_0":25
					},
					"indices":26,
					"material":2
				}
			]
		},
		{
			"name":"Object_15",
			"primitives":[
				{
					"attributes":{
						"POSITION":27,
						"NORMAL":28,
						"TEXCOORD_0":29
					},
					"indices":30,
					"material":2
				}
			]
		},
		{
			"name":"Object_16",
			"primitives":[
				{
					"attributes":{
						"POSITION":31,
						"NORMAL":32,
						"TEXCOORD_0":33
					},
					"indices":34,
					"material":2
				}
			]
		},
		{
			"name":"Object_17",
			"primitives":[
				{
					"attributes":{
						"POSITION":35,
						"NORMAL":36,
						"TEXCOORD_0":37
					},
					"indices":38,
					"material":2
				}
			]
		},
		{
			"name":"Object_0",
			"primitives":[
				{
					"attributes":{
						"POSITION":39,
						"NORMAL":40,
						"TEXCOORD_0":41
					},
					"indices":42,
					"material":3
				}
			]
		},
		{
			"name":"Object_18",
			"primitives":[
				{
					"attributes":{
						"POSITION":43,
						"NORMAL":44,
						"TEXCOORD_0":45
					},
					"indices":46,
					"material":2
				}
			]
		},
		{
			"name":"Object_19",
			"primitives":[
				{
					"attributes":{
						"POSITION":47,
						"NORMAL":48,
						"TEXCOORD_0":49
					},
					"indices":50,
					"material":4
				}
			]
		},
		{
			"name":"Object_20",
			"primitives":[
				{
					"attributes":{
						"POSITION":51,
						"NORMAL":52,
						"TEXCOORD_0":53
					},
					"indices":54,
					"material":4
				}
			]
		},
		{
			"name":"Object_21",
			"primitives":[
				{
					"attributes":{
						"POSITION":55,
						"NORMAL":56,
						"TEXCOORD_0":57
					},
					"indices":58,
					"material":4
				}
			]
		},
		{
			"name":"Object_22",
			"primitives":[
				{
					"attributes":{
						"POSITION":59,
						"NORMAL":60,
						"TEXCOORD_0":61
					},
					"indices":62,
					"material":5
				}
			]
		},
		{
			"name":"Object_23",
			"primitives":[
				{
					"attributes":{
						"POSITION":63,
						"NORMAL":64,
						"TEXCOORD_0":65
					},
					"indices":66,
					"material":5
				}
			]
		},
		{
			"name":"Object_24",
			"primitives":[
				{
					"attributes":{
						"POSITION":67,
						"NORMAL":68,
						"TEXCOORD_0":69
					},
					"indices":70,
					"material":5
				}
			]
		},
		{
			"name":"Object_25",
			"primitives":[
				{
					"attributes":{
						"POSITION":71,
						"NORMAL":72,
						"TEXCOORD_0":73
					},
					"indices":74,
					"material":5
				}
			]
		},
		{
			"name":"Object_26",
			"primitives":[
				{
					"attributes":{
						"POSITION":75,
						"NORMAL":76,
						"TEXCOORD_0":77
					},
					"indices":78,
					"material":5
				}
			]
		},
		{
			"name":"Object_27",
			"primitives":[
				{
					"attributes":{
						"POSITION":79,
						"NORMAL":80,
						"TEXCOORD_0":81
					},
					"indices":82,
					"material":5
				}
			]
		},
		{
			"name":"Object_1",
			"primitives":[
				{
					"attributes":{
						"POSITION":83,
						"NORMAL":84,
						"TEXCOORD_0":85
					},
					"indices":86,
					"material":6
				}
			]
		},
		{
			"name":"Object_28",
			"primitives":[
				{
					"attributes":{
						"POSITION":87,
						"NORMAL":88,
						"TEXCOORD_0":89
					},
					"indices":90,
					"material":7
				}
			]
		},
		{
			"name":"Object_29",
			"primitives":[
				{
					"attributes":{
						"POSITION":91,
						"NORMAL":92,
						"TEXCOORD_0":93
					},
					"indices":94,
					"material":6
				}
			]
		},
		{
			"name":"Object_30",
			"primitives":[
				{
					"attributes":{
						"POSITION":95,
						"NORMAL":96,
						"TEXCOORD_0":97
					},
					"indices":98,
					"material":6
				}
			]
		},
		{
			"name":"Object_31",
			"primitives":[
				{
					"attributes":{
						"POSITION":99,
						"NORMAL":100,
						"TEXCOORD_0":101
					},
					"indices":102,
					"material":6
				}
			]
		},
		{
			"name":"Object_32",
			"primitives":[
				{
					"attributes":{
						"POSITION":103,
						"NORMAL":104,
						"TEXCOORD_0":105
					},
					"indices":106,
					"material":6
				}
			]
		},
		{
			"name":"Object_33",
			"primitives":[
				{
					"attributes":{
						"POSITION":107,
						"NORMAL":108,
						"TEXCOORD_0":109
					},
					"indices":110,
					"material":6
				}
			]
		},
		{
			"name":"Object_34",
			"primitives":[
				{
					"attributes":{
						"POSITION":111,
						"NORMAL":112,
						"TEXCOORD_0":113
					},
					"indices":114,
					"material":6
				}
			]
		},
		{
			"name":"Object_35",
			"primitives":[
				{
					"attributes":{
						"POSITION":115,
						"NORMAL":116,
						"TEXCOORD_0":117
					},
					"indices":118,
					"material":6
				}
			]
		},
		{
			"name":"Object_36",
			"primitives":[
				{
					"attributes":{
						"POSITION":119,
						"NORMAL":120,
						"TEXCOORD_0":121
					},
					"indices":122,
					"material":6
				}
			]
		},
		{
			"name":"Object_37",
			"primitives":[
				{
					"attributes":{
						"POSITION":123,
						"NORMAL":124,
						"TEXCOORD_0":125
					},
					"indices":126,
					"material":6
				}
			]
		},
		{
			"name":"Object_2",
			"primitives":[
				{
					"attributes":{
						"POSITION":127,
						"NORMAL":128,
						"TEXCOORD_0":129
					},
					"indices":130,
					"material":8
				}
			]
		},
		{
			"name":"Object_38",
			"primitives":[
				{
					"attributes":{
						"POSITION":131,
						"NORMAL":132,
						"TEXCOORD_0":133
					},
					"indices":134,
					"material":6
				}
			]
		},
		{
			"name":"Object_39",
			"primitives":[
				{
					"attributes":{
						"POSITION":135,
						"NORMAL":136,
						"TEXCOORD_0":137
					},
					"indices":138,
					"material":6
				}
			]
		},
		{
			"name":"Object_40",
			"primitives":[
				{
					"attributes":{
						"POSITION":139,
						"NORMAL":140,
						"TEXCOORD_0":141
					},
					"indices":142,
					"material":6
				}
			]
		},
		{
			"name":"Object_41",
			"primitives":[
				{
					"attributes":{
						"POSITION":143,
						"NORMAL":144,
						"TEXCOORD_0":145
					},
					"indices":146,
					"material":6
				}
			]
		},
		{
			"name":"Object_42",
			"primitives":[
				{
					"attributes":{
						"POSITION":147,
						"NORMAL":148,
						"TEXCOORD_0":149
					},
					"indices":150,
					"material":6
				}
			]
		},
		{
			"name":"Object_43",
			"primitives":[
				{
					"attributes":{
						"POSITION":151,
						"NORMAL":152,
						"TEXCOORD_0":153
					},
					"indices":154,
					"material":6
				}
			]
		},
		{
			"name":"Object_44",
			"primitives":[
				{
					"attributes":{
						"POSITION":155,
						"NORMAL":156,
						"TEXCOORD_0":157
					},
					"indices":158,
					"material":6
				}
			]
		},
		{
			"name":"Object_45",
			"primitives":[
				{
					"attributes":{
						"POSITION":159,
						"NORMAL":160,
						"TEXCOORD_0":161
					},
					"indices":162,
					"material":6
				}
			]
		},
		{
			"name":"Object_46",
			"primitives":[
				{
					"attributes":{
						"POSITION":163,
						"NORMAL":164,
						"TEXCOORD_0":165
					},
					"indices":166,
					"material":6
				}
			]
		},
		{
			"name":"Object_47",
			"primitives":[
				{
					"attributes":{
						"POSITION":167,
						"NORMAL":168,
						"TEXCOORD_0":169
					},
					"indices":170,
					"material":6
				}
			]
		},
		{
			"name":"Object_3",
			"primitives":[
				{
					"attributes":{
						"POSITION":171,
						"NORMAL":172,
						"TEXCOORD_0":173
					},
					"indices":174,
					"material":8
				}
			]
		},
		{
			"name":"Object_48",
			"primitives":[
				{
					"attributes":{
						"POSITION":175,
						"NORMAL":176,
						"TEXCOORD_0":177
					},
					"indices":178,
					"material":6
				}
			]
		},
		{
			"name":"Object_49",
			"primitives":[
				{
					"attributes":{
						"POSITION":179,
						"NORMAL":180,
						"TEXCOORD_0":181
					},
					"indices":182,
					"material":6
				}
			]
		},
		{
			"name":"Object_50",
			"primitives":[
				{
					"attributes":{
						"POSITION":183,
						"NORMAL":184,
						"TEXCOORD_0":185
					},
					"indices":186,
					"material":6
				}
			]
		},
		{
			"name":"Object_51",
			"primitives":[
				{
					"attributes":{
						"POSITION":187,
						"NORMAL":188,
						"TEXCOORD_0":189
					},
					"indices":190,
					"material":9
				}
			]
		},
		{
			"name":"Object_52",
			"primitives":[
				{
					"attributes":{
						"POSITION":191,
						"NORMAL":192,
						"TEXCOORD_0":193
					},
					"indices":194,
					"material":9
				}
			]
		},
		{
			"name":"Object_53",
			"primitives":[
				{
					"attributes":{
						"POSITION":195,
						"NORMAL":196,
						"TEXCOORD_0":197
					},
					"indices":198,
					"material":9
				}
			]
		},
		{
			"name":"Object_54",
			"primitives":[
				{
					"attributes":{
						"POSITION":199,
						"NORMAL":200,
						"TEXCOORD_0":201
					},
					"indices":202,
					"material":9
				}
			]
		},
		{
			"name":"Object_55",
			"primitives":[
				{
					"attributes":{
						"POSITION":203,
						"NORMAL":204,
						"TEXCOORD_0":205
					},
					"indices":206,
					"material":9
				}
			]
		},
		{
			"name":"Object_56",
			"primitives":[
				{
					"attributes":{
						"POSITION":207,
						"NORMAL":208,
						"TEXCOORD_0":209
					},
					"indices":210,
					"material":9
				}
			]
		},
		{
			"name":"Object_57",
			"primitives":[
				{
					"attributes":{
						"POSITION":211,
						"NORMAL":212,
						"TEXCOORD_0":213
					},
					"indices":214,
					"material":9
				}
			]
		},
		{
			"name":"Object_4",
			"primitives":[
				{
					"attributes":{
						"POSITION":215,
						"NORMAL":216,
						"TEXCOORD_0":217
					},
					"indices":218,
					"material":10
				}
			]
		},
		{
			"name":"Object_58",
			"primitives":[
				{
					"attributes":{
						"POSITION":219,
						"NORMAL":220,
						"TEXCOORD_0":221
					},
					"indices":222,
					"material":11
				}
			]
		},
		{
			"name":"Object_59",
			"primitives":[
				{
					"attributes":{
						"POSITION":223,
						"NORMAL":224,
						"TEXCOORD_0":225
					},
					"indices":226,
					"material":11
				}
			]
		},
		{
			"name":"Object_60",
			"primitives":[
				{
					"attributes":{
						"POSITION":227,
						"NORMAL":228,
						"TEXCOORD_0":229
					},
					"indices":230,
					"material":11
				}
			]
		},
		{
			"name":"Object_61",
			"primitives":[
				{
					"attributes":{
						"POSITION":231,
						"NORMAL":232,
						"TEXCOORD_0":233
					},
					"indices":234,
					"material":11
				}
			]
		},
		{
			"name":"Object_5",
			"primitives":[
				{
					"attributes":{
						"POSITION":235,
						"NORMAL":236,
						"TEXCOORD_0":237
					},
					"indices":238,
					"material":12
				}
			]
		},
		{
			"name":"Object_6",
			"primitives":[
				{
					"attributes":{
						"POSITION":239,
						"NORMAL":240,
						"TEXCOORD_0":241
					},
					"indices":3,
					"material":0
				}
			]
		},
		{
			"name":"Object_7",
			"primitives":[
				{
					"attributes":{
						"POSITION":242,
						"NORMAL":243,
						"TEXCOORD_0":244
					},
					"indices":3,
					"material":0
				}
			]
		}
	],
	"textures":[
		{
			"sampler":0,
			"source":0
		},
		{
			"sampler":0,
			"source":0
		},
		{
			"sampler":0,
			"source":1
		},
		{
			"sampler":0,
			"source":1
		},
		{
			"sampler":0,
			"source":2
		},
		{
			"sampler":0,
			"source":2
		},
		{
			"sampler":0,
			"source":3
		},
		{
			"sampler":0,
			"source":3
		},
		{
			"sampler":0,
			"source":4
		},
		{
			"sampler":0,
			"source":4
		},
		{
			"sampler":0,
			"source":5
		},
		{
			"sampler":0,
			"source":5
		},
		{
			"sampler":0,
			"source":6
		},
		{
			"sampler":0,
			"source":6
		},
		{
			"sampler":0,
			"source":7
		},
		{
			"sampler":0,
			"source":7
		},
		{
			"sampler":0,
			"source":8
		},
		{
			"sampler":0,
			"source":8
		},
		{
			"sampler":0,
			"source":9
		},
		{
			"sampler":0,
			"source":9
		},
		{
			"sampler":0,
			"source":10
		},
		{
			"sampler":0,
			"source":10
		},
		{
			"sampler":0,
			"source":11
		},
		{
			"sampler":0,
			"source":11
		},
		{
			"sampler":0,
			"source":12
		},
		{
			"sampler":0,
			"source":12
		}
	],
	"images":[
		{
			"mimeType":"image/jpeg",
			"name":"Image_2",
			"uri":"../../textures/vehicles/rafale/Image_2.jpg"
		},
		{
			"mimeType":"image/jpeg",
			"name":"Image_3",
			"uri":"../../textures/vehicles/rafale/Image_3.jpg"
		},
		{
			"mimeType":"image/jpeg",
			"name":"Image_4",
			"uri":"../../textures/vehicles/rafale/Image_4.jpg"
		},
		{
			"mimeType":"image/jpeg",
			"name":"Image_6",
			"uri":"../../textures/vehicles/rafale/Image_6.jpg"
		},
		{
			"mimeType":"image/jpeg",
			"name":"Image_5",
			"uri":"../../textures/vehicles/rafale/Image_5.jpg"
		},
		{
			"mimeType":"image/jpeg",
			"name":"Image_7",
			"uri":"../../textures/vehicles/rafale/Image_7.jpg"
		},
		{
			"mimeType":"image/jpeg",
			"name":"Image_9",
			"uri":"../../textures/vehicles/rafale/Image_9.jpg"
		},
		{
			"mimeType":"image/jpeg",
			"name":"Image_8",
			"uri":"../../textures/vehicles/rafale/Image_8.jpg"
		},
		{
			"mimeType":"image/jpeg",
			"name":"Image_11",
			"uri":"../../textures/vehicles/rafale/Image_11.jpg"
		},
		{
			"mimeType":"image/jpeg",
			"name":"Image_10",
			"uri":"../../textures/vehicles/rafale/Image_10.jpg"
		},
		{
			"mimeType":"image/jpeg",
			"name":"Image_0",
			"uri":"../../textures/vehicles/rafale/Image_0.jpg"
		},
		{
			"mimeType":"image/jpeg",
			"name":"Image_12",
			"uri":"../../textures/vehicles/rafale/Image_12.jpg"
		},
		{
			"mimeType":"image/jpeg",
			"name":"Image_1",
			"uri":"../../textures/vehicles/rafale/Image_1.jpg"
		}
	],
	"accessors":[
		{
			"bufferView":0,
			"componentType":5126,
			"count":15898,
			"max":[
				46.733699798583984,
				5.017499923706055,
				-7.981599807739258
			],
			"min":[
				-33.160400390625,
				-5.017499923706055,
				-20.806299209594727
			],
			"type":"VEC3"
		},
		{
			"bufferView":1,
			"componentType":5126,
			"count":15898,
			"type":"VEC3"
		},
		{
			"bufferView":2,
			"componentType":5126,
			"count":15898,
			"type":"VEC2"
		},
		{
			"bufferView":3,
			"componentType":5123,
			"count":85536,
			"type":"SCALAR"
		},
		{
			"bufferView":4,
			"componentType":5126,
			"count":6570,
			"max":[
				65.79859924316406,
				-64.00289916992188,
				-0.4668000042438507
			],
			"min":[
				25.57509994506836,
				-68.73560333251953,
				-5.280700206756592
			],
			"type":"VEC3"
		},
		{
			"bufferView":5,
			"componentType":5126,
			"count":6570,
			"type":"VEC3"
		},
		{
			"bufferView":6,
			"componentType":5126,
			"count":6570,
			"type":"VEC2"
		},
		{
			"bufferView":7,
			"componentType":5123,
			"count":31992,
			"type":"SCALAR"
		},
		{
			"bufferView":8,
			"componentType":5126,
			"count":6570,
			"max":[
				65.79859924316406,
				68.74150085449219,
				-0.4668000042438507
			],
			"min":[
				25.57509994506836,
				64.00869750976562,
				-5.280700206756592
			],
			"type":"VEC3"
		},
		{
			"bufferView":9,
			"componentType":5126,
			"count":6570,
			"type":"VEC3"
		},
		{
			"bufferView":10,
			"componentType":5126,
			"count":6570,
			"type":"VEC2"
		},
		{
			"bufferView":11,
			"componentType":5126,
			"count":7934,
			"max":[
				45.098201751708984,
				38.358001708984375,
				-6.519999980926514
			],
			"min":[
				4.9857001304626465,
				-46.1526985168457,
				-14.398099899291992
			],
			"type":"VEC3"
		},
		{
			"bufferView":12,
			"componentType":5126,
			"count":7934,
			"type":"VEC3"
		},
		{
			"bufferView":13,
			"componentType":5126,
			"count":7934,
			"type":"VEC2"
		},
		{
			"bufferView":14,
			"componentType":5123,
			"count":38448,
			"type":"SCALAR"
		},
		{
			"bufferView":15,
			"componentType":5126,
			"count":7840,
			"max":[
				45.098201751708984,
				-40.55500030517578,
				-6.519999980926514
			],
			"min":[
				4.9857001304626465,
				-46.26240158081055,
				-14.398099899291992
			],
			"type":"VEC3"
		},
		{
			"bufferView":16,
			"componentType":5126,
			"count":7840,
			"type":"VEC3"
		},
		{
			"bufferView":17,
			"componentType":5126,
			"count":7840,
			"type":"VEC2"
		},
		{
			"bufferView":18,
			"componentType":5123,
			"count":38106,
			"type":"SCALAR"
		},
		{
			"bufferView":19,
			"componentType":5126,
			"count":7825,
			"max":[
				42.66120147705078,
				46.152801513671875,
				-9.672699928283691
			],
			"min":[
				-4.294300079345703,
				-41.87409973144531,
				-14.50790023803711
			],
			"type":"VEC3"
		},
		{
			"bufferView":20,
			"componentType":5126,
			"count":7825,
			"type":"VEC3"
		},
		{
			"bufferView":21,
			"componentType":5126,
			"count":7825,
			"type":"VEC2"
		},
		{
			"bufferView":22,
			"componentType":5123,
			"count":38106,
			"type":"SCALAR"
		},
		{
			"bufferView":23,
			"componentType":5126,
			"count":7826,
			"max":[
				42.66130065917969,
				41.87409973144531,
				-6.63040018081665
			],
			"min":[
				-4.294300079345703,
				32.863800048828125,
				-14.507800102233887
			],
			"type":"VEC3"
		},
		{
			"bufferView":24,
			"componentType":5126,
			"count":7826,
			"type":"VEC3"
		},
		{
			"bufferView":25,
			"componentType":5126,
			"count":7826,
			"type":"VEC2"
		},
		{
			"bufferView":26,
			"componentType":5123,
			"count":38106,
			"type":"SCALAR"
		},
		{
			"bufferView":27,
			"componentType":5126,
			"count":7778,
			"max":[
				45.098201751708984,
				37.589298248291016,
				-6.519999980926514
			],
			"min":[
				4.9857001304626465,
				32.75419998168945,
				-11.35509967803955
			],
			"type":"VEC3"
		},
		{
			"bufferView":28,
			"componentType":5126,
			"count":7778,
			"type":"VEC3"
		},
		{
			"bufferView":29,
			"componentType":5126,
			"count":7778,
			"type":"VEC2"
		},
		{
			"bufferView":30,
			"componentType":5123,
			"count":37878,
			"type":"SCALAR"
		},
		{
			"bufferView":31,
			"componentType":5126,
			"count":5176,
			"max":[
				56.105899810791016,
				-34.93880081176758,
				-2.1122000217437744
			],
			"min":[
				6.121300220489502,
				-43.97420120239258,
				-10.085200309753418
			],
			"type":"VEC3"
		},
		{
			"bufferView":32,
			"componentType":5126,
			"count":5176,
			"type":"VEC3"
		},
		{
			"bufferView":33,
			"componentType":5126,
			"count":5176,
			"type":"VEC2"
		},
		{
			"bufferView":34,
			"componentType":5123,
			"count":25062,
			"type":"SCALAR"
		},
		{
			"bufferView":35,
			"componentType":5126,
			"count":5255,
			"max":[
				56.105899810791016,
				43.97420120239258,
				-2.1122000217437744
			],
			"min":[
				6.121300220489502,
				34.93880081176758,
				-11.364899635314941
			],
			"type":"VEC3"
		},
		{
			"bufferView":36,
			"componentType":5126,
			"count":5255,
			"type":"VEC3"
		},
		{
			"bufferView":37,
			"componentType":5126,
			"count":5255,
			"type":"VEC2"
		},
		{
			"bufferView":38,
			"componentType":5123,
			"count":25290,
			"type":"SCALAR"
		},
		{
			"bufferView":39,
			"componentType":5126,
			"count":6142,
			"max":[
				74.78939819335938,
				22.697099685668945,
				11.026800155639648
			],
			"min":[
				-9.343400001525879,
				-22.697099685668945,
				-10.181699752807617
			],
			"type":"VEC3"
		},
		{
			"bufferView":40,
			"componentType":5126,
			"count":6142,
			"type":"VEC3"
		},
		{
			"bufferView":41,
			"componentType":5126,
			"count":6142,
			"type":"VEC2"
		},
		{
			"bufferView":42,
			"componentType":5123,
			"count":34302,
			"type":"SCALAR"
		},
		{
			"bufferView":43,
			"componentType":5126,
			"count":7757,
			"max":[
				45.098201751708984,
				46.26240158081055,
				-6.639500141143799
			],
			"min":[
				4.9857001304626465,
				41.42729949951172,
				-11.474599838256836
			],
			"type":"VEC3"
		},
		{
			"bufferView":44,
			"componentType":5126,
			"count":7757,
			"type":"VEC3"
		},
		{
			"bufferView":45,
			"componentType":5126,
			"count":7757,
			"type":"VEC2"
		},
		{
			"bufferView":46,
			"componentType":5123,
			"count":37764,
			"type":"SCALAR"
		},
		{
			"bufferView":47,
			"componentType":5126,
			"count":11647,
			"max":[
				74.6989974975586,
				20.62070083618164,
				12.472900390625
			],
			"min":[
				-100,
				-20.63319969177246,
				-10.179100036621094
			],
			"type":"VEC3"
		},
		{
			"bufferView":48,
			"componentType":5126,
			"count":11647,
			"type":"VEC3"
		},
		{
			"bufferView":49,
			"componentType":5126,
			"count":11647,
			"type":"VEC2"
		},
		{
			"bufferView":50,
			"componentType":5123,
			"count":61338,
			"type":"SCALAR"
		},
		{
			"bufferView":51,
			"componentType":5126,
			"count":21533,
			"max":[
				73.34089660644531,
				52.47169876098633,
				13.762800216674805
			],
			"min":[
				-76.05329895019531,
				-52.47159957885742,
				-10.661800384521484
			],
			"type":"VEC3"
		},
		{
			"bufferView":52,
			"componentType":5126,
			"count":21533,
			"type":"VEC3"
		},
		{
			"bufferView":53,
			"componentType":5126,
			"count":21533,
			"type":"VEC2"
		},
		{
			"bufferView":54,
			"componentType":5123,
			"count":110370,
			"type":"SCALAR"
		},
		{
			"bufferView":55,
			"componentType":5126,
			"count":2246,
			"max":[
				-65.12809753417969,
				7.412899971008301,
				11.964699745178223
			],
			"min":[
				-83.55870056152344,
				4.641499996185303,
				4.469099998474121
			],
			"type":"VEC3"
		},
		{
			"bufferView":56,
			"componentType":5126,
			"count":2246,
			"type":"VEC3"
		},
		{
			"bufferView":57,
			"componentType":5126,
			"count":2246,
			"type":"VEC2"
		},
		{
			"bufferView":58,
			"componentType":5123,
			"count":11820,
			"type":"SCALAR"
		},
		{
			"bufferView":59,
			"componentType":5126,
			"count":6895,
			"max":[
				98.16069793701172,
				48.6265983581543,
				42.22129821777344
			],
			"min":[
				22.82670021057129,
				-48.62799835205078,
				-3.98009991645813
			],
			"type":"VEC3"
		},
		{
			"bufferView":60,
			"componentType":5126,
			"count":6895,
			"type":"VEC3"
		},
		{
			"bufferView":61,
			"componentType":5126,
			"count":6895,
			"type":"VEC2"
		},
		{
			"bufferView":62,
			"componentType":5123,
			"count":34548,
			"type":"SCALAR"
		},
		{
			"bufferView":63,
			"componentType":5126,
			"count":8566,
			"max":[
				-21.70439910888672,
				7.372099876403809,
				15.023200035095215
			],
			"min":[
				-54.6786003112793,
				-6.143599987030029,
				-9.788700103759766
			],
			"type":"VEC3"
		},
		{
			"bufferView":64,
			"componentType":5126,
			"count":8566,
			"type":"VEC3"
		},
		{
			"bufferView":65,
			"componentType":5126,
			"count":8566,
			"type":"VEC2"
		},
		{
			"bufferView":66,
			"componentType":5123,
			"count":44634,
			"type":"SCALAR"
		},
		{
			"bufferView":67,
			"componentType":5126,
			"count":9765,
			"max":[
				-34.544700622558594,
				3.580699920654297,
				-4.714200019836426
			],
			"min":[
				-61.987701416015625,
				-3.6008999347686768,
				-9.793499946594238
			],
			"type":"VEC3"
		},
		{
			"bufferView":68,
			"componentType":5126,
			"count":9765,
			"type":"VEC3"
		},
		{
			"bufferView":69,
			"componentType":5126,
			"count":9765,
			"type":"VEC2"
		},
		{
			"bufferView":70,
			"componentType":5123,
			"count":47820,
			"type":"SCALAR"
		},
		{
			"bufferView":71,
			"componentType":5126,
			"count":6068,
			"max":[
				43.491600036621094,
				59.98870086669922,
				14.796600341796875
			],
			"min":[
				-68.84100341796875,
				-62.22420120239258,
				-5.409800052642822
			],
			"type":"VEC3"
		},
		{
			"bufferView":72,
			"componentType":5126,
			"count":6068,
			"type":"VEC3"
		},
		{
			"bufferView":73,
			"componentType":5126,
			"count":6068,
			"type":"VEC2"
		},
		{
			"bufferView":74,
			"componentType":5123,
			"count":31410,
			"type":"SCALAR"
		},
		{
			"bufferView":75,
			"componentType":5126,
			"count":9642,
			"max":[
				18.381799697875977,
				14.743200302124023,
				-7.57420015335083
			],
			"min":[
				-2.3798000812530518,
				-14.787799835205078,
				-10.093799591064453
			],
			"type":"VEC3"
		},
		{
			"bufferView":76,
			"componentType":5126,
			"count":9642,
			"type":"VEC3"
		},
		{
			"bufferView":77,
			"componentType":5126,
			"count":9642,
			"type":"VEC2"
		},
		{
			"bufferView":78,
			"componentType":5123,
			"count":48936,
			"type":"SCALAR"
		},
		{
			"bufferView":79,
			"componentType":5126,
			"count":9072,
			"max":[
				67.23529815673828,
				65.4363021850586,
				1.9638999700546265
			],
			"min":[
				-5.11870002746582,
				-65.4352035522461,
				-17.890600204467773
			],
			"type":"VEC3"
		},
		{
			"bufferView":80,
			"componentType":5126,
			"count":9072,
			"type":"VEC3"
		},
		{
			"bufferView":81,
			"componentType":5126,
			"count":9072,
			"type":"VEC2"
		},
		{
			"bufferView":82,
			"componentType":5123,
			"count":47022,
			"type":"SCALAR"
		},
		{
			"bufferView":83,
			"componentType":5126,
			"count":45122,
			"max":[
				-37.077701568603516,
				3.384700059890747,
				-3.280600070953369
			],
			"min":[
				-41.48419952392578,
				-3.3847999572753906,
				-18.277999877929688
			],
			"type":"VEC3"
		},
		{
			"bufferView":84,
			"componentType":5126,
			"count":45122,
			"type":"VEC3"
		},
		{
			"bufferView":85,
			"componentType":5126,
			"count":45122,
			"type":"VEC2"
		},
		{
			"bufferView":86,
			"componentType":5123,
			"count":185130,
			"type":"SCALAR"
		},
		{
			"bufferView":87,
			"componentType":5126,
			"count":6841,
			"max":[
				93.8270034790039,
				62.890499114990234,
				34.0718994140625
			],
			"min":[
				-32.222599029541016,
				-62.889400482177734,
				-10.081100463867188
			],
			"type":"VEC3"
		},
		{
			"bufferView":88,
			"componentType":5126,
			"count":6841,
			"type":"VEC3"
		},
		{
			"bufferView":89,
			"componentType":5126,
			"count":6841,
			"type":"VEC2"
		},
		{
			"bufferView":90,
			"componentType":5123,
			"count":36120,
			"type":"SCALAR"
		},
		{
			"bufferView":91,
			"componentType":5126,
			"count":7046,
			"max":[
				77.10369873046875,
				13.0649995803833,
				5.8358001708984375
			],
			"min":[
				22.66710090637207,
				-13.049099922180176,
				-15.073599815368652
			],
			"type":"VEC3"
		},
		{
			"bufferView":92,
			"componentType":5126,
			"count":7046,
			"type":"VEC3"
		},
		{
			"bufferView":93,
			"componentType":5126,
			"count":7046,
			"type":"VEC2"
		},
		{
			"bufferView":94,
			"componentType":5123,
			"count":33624,
			"type":"SCALAR"
		},
		{
			"bufferView":95,
			"componentType":5126,
			"count":19027,
			"max":[
				78.81829833984375,
				12.888899803161621,
				5.521100044250488
			],
			"min":[
				74.56690216064453,
				-12.873000144958496,
				-6.065400123596191
			],
			"type":"VEC3"
		},
		{
			"bufferView":96,
			"componentType":5126,
			"count":19027,
			"type":"VEC3"
		},
		{
			"bufferView":97,
			"componentType":5126,
			"count":19027,
			"type":"VEC2"
		},
		{
			"bufferView":98,
			"componentType":5123,
			"count":91257,
			"type":"SCALAR"
		},
		{
			"bufferView":99,
			"componentType":5126,
			"count":10647,
			"max":[
				24.52739906311035,
				15.478099822998047,
				-6.750899791717529
			],
			"min":[
				20.627700805664062,
				8.84850025177002,
				-18.780000686645508
			],
			"type":"VEC3"
		},
		{
			"bufferView":100,
			"componentType":5126,
			"count":10647,
			"type":"VEC3"
		},
		{
			"bufferView":101,
			"componentType":5126,
			"count":10647,
			"type":"VEC2"
		},
		{
			"bufferView":102,
			"componentType":5123,
			"count":52788,
			"type":"SCALAR"
		},
		{
			"bufferView":103,
			"componentType":5126,
			"count":8470,
			"max":[
				23.929399490356445,
				15.466099739074707,
				-9.951800346374512
			],
			"min":[
				18.076200485229492,
				8.872599601745605,
				-22.984800338745117
			],
			"type":"VEC3"
		},
		{
			"bufferView":104,
			"componentType":5126,
			"count":8470,
			"type":"VEC3"
		},
		{
			"bufferView":105,
			"componentType":5126,
			"count":8470,
			"type":"VEC2"
		},
		{
			"bufferView":106,
			"componentType":5123,
			"count":43140,
			"type":"SCALAR"
		},
		{
			"bufferView":107,
			"componentType":5126,
			"count":9012,
			"max":[
				27.692699432373047,
				18.720300674438477,
				-16.54170036315918
			],
			"min":[
				18.00779914855957,
				15.17770004272461,
				-26.227399826049805
			],
			"type":"VEC3"
		},
		{
			"bufferView":108,
			"componentType":5126,
			"count":9012,
			"type":"VEC3"
		},
		{
			"bufferView":109,
			"componentType":5126,
			"count":9012,
			"type":"VEC2"
		},
		{
			"bufferView":110,
			"componentType":5123,
			"count":47898,
			"type":"SCALAR"
		},
		{
			"bufferView":111,
			"componentType":5126,
			"count":4149,
			"max":[
				23.463199615478516,
				15.75790023803711,
				-18.298099517822266
			],
			"min":[
				17.177799224853516,
				13.238699913024902,
				-23.27079963684082
			],
			"type":"VEC3"
		},
		{
			"bufferView":112,
			"componentType":5126,
			"count":4149,
			"type":"VEC3"
		},
		{
			"bufferView":113,
			"componentType":5126,
			"count":4149,
			"type":"VEC2"
		},
		{
			"bufferView":114,
			"componentType":5123,
			"count":20502,
			"type":"SCALAR"
		},
		{
			"bufferView":115,
			"componentType":5126,
			"count":8328,
			"max":[
				22.260900497436523,
				14.877099990844727,
				-18.29170036315918
			],
			"min":[
				17.343399047851562,
				13.103400230407715,
				-21.861099243164062
			],
			"type":"VEC3"
		},
		{
			"bufferView":116,
			"componentType":5126,
			"count":8328,
			"type":"VEC3"
		},
		{
			"bufferView":117,
			"componentType":5126,
			"count":8328,
			"type":"VEC2"
		},
		{
			"bufferView":118,
			"componentType":5123,
			"count":40230,
			"type":"SCALAR"
		},
		{
			"bufferView":119,
			"componentType":5126,
			"count":5906,
			"max":[
				81.67449951171875,
				14.777000427246094,
				-3.777899980545044
			],
			"min":[
				12.444700241088867,
				2.1484999656677246,
				-19.845699310302734
			],
			"type":"VEC3"
		},
		{
			"bufferView":120,
			"componentType":5126,
			"count":5906,
			"type":"VEC3"
		},
		{
			"bufferView":121,
			"componentType":5126,
			"count":5906,
			"type":"VEC2"
		},
		{
			"bufferView":122,
			"componentType":5123,
			"count":29598,
			"type":"SCALAR"
		},
		{
			"bufferView":123,
			"componentType":5126,
			"count":10647,
			"max":[
				24.575899124145508,
				-8.810600280761719,
				-6.745699882507324
			],
			"min":[
				20.716100692749023,
				-15.368599891662598,
				-18.783000946044922
			],
			"type":"VEC3"
		},
		{
			"bufferView":124,
			"componentType":5126,
			"count":10647,
			"type":"VEC3"
		},
		{
			"bufferView":125,
			"componentType":5126,
			"count":10647,
			"type":"VEC2"
		},
		{
			"bufferView":126,
			"componentType":5123,
			"count":52788,
			"type":"SCALAR"
		},
		{
			"bufferView":127,
			"componentType":5126,
			"count":66894,
			"max":[
				-41.33300018310547,
				3.0013999938964844,
				14.576800346374512
			],
			"min":[
				-54.39390182495117,
				-3.026900053024292,
				2.505199909210205
			],
			"type":"VEC3"
		},
		{
			"bufferView":128,
			"componentType":5126,
			"count":66894,
			"type":"VEC3"
		},
		{
			"bufferView":129,
			"componentType":5126,
			"count":66894,
			"type":"VEC2"
		},
		{
			"bufferView":130,
			"componentType":5125,
			"count":294618,
			"type":"SCALAR"
		},
		{
			"bufferView":131,
			"componentType":5126,
			"count":8879,
			"max":[
				23.69379997253418,
				-12.760499954223633,
				-16.617399215698242
			],
			"min":[
				17.218799591064453,
				-15.647000312805176,
				-23.279300689697266
			],
			"type":"VEC3"
		},
		{
			"bufferView":132,
			"componentType":5126,
			"count":8879,
			"type":"VEC3"
		},
		{
			"bufferView":133,
			"componentType":5126,
			"count":8879,
			"type":"VEC2"
		},
		{
			"bufferView":134,
			"componentType":5123,
			"count":44352,
			"type":"SCALAR"
		},
		{
			"bufferView":135,
			"componentType":5126,
			"count":8328,
			"max":[
				22.27989959716797,
				-13.00879955291748,
				-18.307300567626953
			],
			"min":[
				17.390100479125977,
				-14.674400329589844,
				-21.89299964904785
			],
			"type":"VEC3"
		},
		{
			"bufferView":136,
			"componentType":5126,
			"count":8328,
			"type":"VEC3"
		},
		{
			"bufferView":137,
			"componentType":5126,
			"count":8328,
			"type":"VEC2"
		},
		{
			"bufferView":138,
			"componentType":5123,
			"count":40230,
			"type":"SCALAR"
		},
		{
			"bufferView":139,
			"componentType":5126,
			"count":9732,
			"max":[
				27.660900115966797,
				-6.772500038146973,
				-3.751800060272217
			],
			"min":[
				12.291099548339844,
				-18.61549949645996,
				-26.258100509643555
			],
			"type":"VEC3"
		},
		{
			"bufferView":140,
			"componentType":5126,
			"count":9732,
			"type":"VEC3"
		},
		{
			"bufferView":141,
			"componentType":5126,
			"count":9732,
			"type":"VEC2"
		},
		{
			"bufferView":142,
			"componentType":5123,
			"count":51570,
			"type":"SCALAR"
		},
		{
			"bufferView":143,
			"componentType":5126,
			"count":6625,
			"max":[
				23.834199905395508,
				-8.935600280761719,
				-9.909199714660645
			],
			"min":[
				17.99090003967285,
				-11.809499740600586,
				-16.438899993896484
			],
			"type":"VEC3"
		},
		{
			"bufferView":144,
			"componentType":5126,
			"count":6625,
			"type":"VEC3"
		},
		{
			"bufferView":145,
			"componentType":5126,
			"count":6625,
			"type":"VEC2"
		},
		{
			"bufferView":146,
			"componentType":5123,
			"count":33990,
			"type":"SCALAR"
		},
		{
			"bufferView":147,
			"componentType":5126,
			"count":9909,
			"max":[
				24.717899322509766,
				14.793100357055664,
				-1.9687000513076782
			],
			"min":[
				-3.064500093460083,
				-14.926400184631348,
				-9.926799774169922
			],
			"type":"VEC3"
		},
		{
			"bufferView":148,
			"componentType":5126,
			"count":9909,
			"type":"VEC3"
		},
		{
			"bufferView":149,
			"componentType":5126,
			"count":9909,
			"type":"VEC2"
		},
		{
			"bufferView":150,
			"componentType":5123,
			"count":46650,
			"type":"SCALAR"
		},
		{
			"bufferView":151,
			"componentType":5126,
			"count":9559,
			"max":[
				81.83580017089844,
				14.405599594116211,
				5.769899845123291
			],
			"min":[
				-39.327999114990234,
				-11.85890007019043,
				-22.238800048828125
			],
			"type":"VEC3"
		},
		{
			"bufferView":152,
			"componentType":5126,
			"count":9559,
			"type":"VEC3"
		},
		{
			"bufferView":153,
			"componentType":5126,
			"count":9559,
			"type":"VEC2"
		},
		{
			"bufferView":154,
			"componentType":5123,
			"count":46836,
			"type":"SCALAR"
		},
		{
			"bufferView":155,
			"componentType":5126,
			"count":6940,
			"max":[
				81.79779815673828,
				0.6220999956130981,
				3.233799934387207
			],
			"min":[
				-39.645999908447266,
				-13.03339958190918,
				-23.925600051879883
			],
			"type":"VEC3"
		},
		{
			"bufferView":156,
			"componentType":5126,
			"count":6940,
			"type":"VEC3"
		},
		{
			"bufferView":157,
			"componentType":5126,
			"count":6940,
			"type":"VEC2"
		},
		{
			"bufferView":158,
			"componentType":5123,
			"count":34116,
			"type":"SCALAR"
		},
		{
			"bufferView":159,
			"componentType":5126,
			"count":3788,
			"max":[
				-37.717098236083984,
				0.727400004863739,
				-18.337200164794922
			],
			"min":[
				-40.410301208496094,
				-0.727400004863739,
				-19.010799407958984
			],
			"type":"VEC3"
		},
		{
			"bufferView":160,
			"componentType":5126,
			"count":3788,
			"type":"VEC3"
		},
		{
			"bufferView":161,
			"componentType":5126,
			"count":3788,
			"type":"VEC2"
		},
		{
			"bufferView":162,
			"componentType":5123,
			"count":18990,
			"type":"SCALAR"
		},
		{
			"bufferView":163,
			"componentType":5126,
			"count":9906,
			"max":[
				-35.06959915161133,
				0.8406000137329102,
				-16.925399780273438
			],
			"min":[
				-38.29909896850586,
				-0.8406000137329102,
				-21.255199432373047
			],
			"type":"VEC3"
		},
		{
			"bufferView":164,
			"componentType":5126,
			"count":9906,
			"type":"VEC3"
		},
		{
			"bufferView":165,
			"componentType":5126,
			"count":9906,
			"type":"VEC2"
		},
		{
			"bufferView":166,
			"componentType":5123,
			"count":48594,
			"type":"SCALAR"
		},
		{
			"bufferView":167,
			"componentType":5126,
			"count":2181,
			"max":[
				81.74079895019531,
				0.29660001397132874,
				-0.250900000333786
			],
			"min":[
				-38.00450134277344,
				-13.024800300598145,
				-17.337200164794922
			],
			"type":"VEC3"
		},
		{
			"bufferView":168,
			"componentType":5126,
			"count":2181,
			"type":"VEC3"
		},
		{
			"bufferView":169,
			"componentType":5126,
			"count":2181,
			"type":"VEC2"
		},
		{
			"bufferView":170,
			"componentType":5123,
			"count":10812,
			"type":"SCALAR"
		},
		{
			"bufferView":171,
			"componentType":5126,
			"count":1576,
			"max":[
				-41.479000091552734,
				1.451300024986267,
				14.47089958190918
			],
			"min":[
				-45.107601165771484,
				-2.9135000705718994,
				9.756799697875977
			],
			"type":"VEC3"
		},
		{
			"bufferView":172,
			"componentType":5126,
			"count":1576,
			"type":"VEC3"
		},
		{
			"bufferView":173,
			"componentType":5126,
			"count":1576,
			"type":"VEC2"
		},
		{
			"bufferView":174,
			"componentType":5123,
			"count":6801,
			"type":"SCALAR"
		},
		{
			"bufferView":175,
			"componentType":5126,
			"count":16342,
			"max":[
				-35.90760040283203,
				3.1191999912261963,
				-20.49220085144043
			],
			"min":[
				-41.64039993286133,
				-3.1191999912261963,
				-26.223400115966797
			],
			"type":"VEC3"
		},
		{
			"bufferView":176,
			"componentType":5126,
			"count":16342,
			"type":"VEC3"
		},
		{
			"bufferView":177,
			"componentType":5126,
			"count":16342,
			"type":"VEC2"
		},
		{
			"bufferView":178,
			"componentType":5123,
			"count":86472,
			"type":"SCALAR"
		},
		{
			"bufferView":179,
			"componentType":5126,
			"count":9507,
			"max":[
				81.83270263671875,
				11.874799728393555,
				5.421599864959717
			],
			"min":[
				-62.16960144042969,
				-3.4651999473571777,
				-16.303699493408203
			],
			"type":"VEC3"
		},
		{
			"bufferView":180,
			"componentType":5126,
			"count":9507,
			"type":"VEC3"
		},
		{
			"bufferView":181,
			"componentType":5126,
			"count":9507,
			"type":"VEC2"
		},
		{
			"bufferView":182,
			"componentType":5123,
			"count":46500,
			"type":"SCALAR"
		},
		{
			"bufferView":183,
			"componentType":5126,
			"count":8130,
			"max":[
				81.83580017089844,
				13.049300193786621,
				5.769899845123291
			],
			"min":[
				74.22200012207031,
				2.163100004196167,
				-6.418300151824951
			],
			"type":"VEC3"
		},
		{
			"bufferView":184,
			"componentType":5126,
			"count":8130,
			"type":"VEC3"
		},
		{
			"bufferView":185,
			"componentType":5126,
			"count":8130,
			"type":"VEC2"
		},
		{
			"bufferView":186,
			"componentType":5123,
			"count":40068,
			"type":"SCALAR"
		},
		{
			"bufferView":187,
			"componentType":5126,
			"count":4341,
			"max":[
				-51.34120178222656,
				4.88640022277832,
				14.697400093078613
			],
			"min":[
				-54.23030090332031,
				-4.886499881744385,
				8.86620044708252
			],
			"type":"VEC3"
		},
		{
			"bufferView":188,
			"componentType":5126,
			"count":4341,
			"type":"VEC3"
		},
		{
			"bufferView":189,
			"componentType":5126,
			"count":4341,
			"type":"VEC2"
		},
		{
			"bufferView":190,
			"componentType":5123,
			"count":23832,
			"type":"SCALAR"
		},
		{
			"bufferView":191,
			"componentType":5126,
			"count":12014,
			"max":[
				-52.28450012207031,
				5.08050012588501,
				12.117600440979004
			],
			"min":[
				-56.707698822021484,
				-5.092400074005127,
				4.384900093078613
			],
			"type":"VEC3"
		},
		{
			"bufferView":192,
			"componentType":5126,
			"count":12014,
			"type":"VEC3"
		},
		{
			"bufferView":193,
			"componentType":5126,
			"count":12014,
			"type":"VEC2"
		},
		{
			"bufferView":194,
			"componentType":5123,
			"count":57858,
			"type":"SCALAR"
		},
		{
			"bufferView":195,
			"componentType":5126,
			"count":22468,
			"max":[
				-47.644500732421875,
				-2.565000057220459,
				10.059800148010254
			],
			"min":[
				-55.33290100097656,
				-4.624499797821045,
				4.504499912261963
			],
			"type":"VEC3"
		},
		{
			"bufferView":196,
			"componentType":5126,
			"count":22468,
			"type":"VEC3"
		},
		{
			"bufferView":197,
			"componentType":5126,
			"count":22468,
			"type":"VEC2"
		},
		{
			"bufferView":198,
			"componentType":5123,
			"count":107097,
			"type":"SCALAR"
		},
		{
			"bufferView":199,
			"componentType":5126,
			"count":5560,
			"max":[
				-52.366600036621094,
				3.982800006866455,
				8.230899810791016
			],
			"min":[
				-53.58430099487305,
				2.9565999507904053,
				5.944499969482422
			],
			"type":"VEC3"
		},
		{
			"bufferView":200,
			"componentType":5126,
			"count":5560,
			"type":"VEC3"
		},
		{
			"bufferView":201,
			"componentType":5126,
			"count":5560,
			"type":"VEC2"
		},
		{
			"bufferView":202,
			"componentType":5123,
			"count":28212,
			"type":"SCALAR"
		},
		{
			"bufferView":203,
			"componentType":5126,
			"count":16319,
			"max":[
				-46.237098693847656,
				4.787199974060059,
				10.062199592590332
			],
			"min":[
				-55.33879852294922,
				2.566999912261963,
				4.447000026702881
			],
			"type":"VEC3"
		},
		{
			"bufferView":204,
			"componentType":5126,
			"count":16319,
			"type":"VEC3"
		},
		{
			"bufferView":205,
			"componentType":5126,
			"count":16319,
			"type":"VEC2"
		},
		{
			"bufferView":206,
			"componentType":5123,
			"count":76101,
			"type":"SCALAR"
		},
		{
			"bufferView":207,
			"componentType":5126,
			"count":10263,
			"max":[
				-50.99909973144531,
				-3.35260009765625,
				8.300999641418457
			],
			"min":[
				-53.214298248291016,
				-4.57480001449585,
				5.933300018310547
			],
			"type":"VEC3"
		},
		{
			"bufferView":208,
			"componentType":5126,
			"count":10263,
			"type":"VEC3"
		},
		{
			"bufferView":209,
			"componentType":5126,
			"count":10263,
			"type":"VEC2"
		},
		{
			"bufferView":210,
			"componentType":5123,
			"count":52455,
			"type":"SCALAR"
		},
		{
			"bufferView":211,
			"componentType":5126,
			"count":1009,
			"max":[
				-53.27560043334961,
				-2.894700050354004,
				6.576200008392334
			],
			"min":[
				-54.01649856567383,
				-3.087899923324585,
				6.133999824523926
			],
			"type":"VEC3"
		},
		{
			"bufferView":212,
			"componentType":5126,
			"count":1009,
			"type":"VEC3"
		},
		{
			"bufferView":213,
			"componentType":5126,
			"count":1009,
			"type":"VEC2"
		},
		{
			"bufferView":214,
			"componentType":5123,
			"count":5634,
			"type":"SCALAR"
		},
		{
			"bufferView":215,
			"componentType":5126,
			"count":3330,
			"max":[
				-23.298099517822266,
				5.412899971008301,
				16.000699996948242
			],
			"min":[
				-68.20559692382812,
				-5.412899971008301,
				-14.973899841308594
			],
			"type":"VEC3"
		},
		{
			"bufferView":216,
			"componentType":5126,
			"count":3330,
			"type":"VEC3"
		},
		{
			"bufferView":217,
			"componentType":5126,
			"count":3330,
			"type":"VEC2"
		},
		{
			"bufferView":218,
			"componentType":5123,
			"count":17688,
			"type":"SCALAR"
		},
		{
			"bufferView":219,
			"componentType":5126,
			"count":13566,
			"max":[
				-21.776199340820312,
				7.234000205993652,
				15.863499641418457
			],
			"min":[
				-54.53929901123047,
				-5.826200008392334,
				5.269999980926514
			],
			"type":"VEC3"
		},
		{
			"bufferView":220,
			"componentType":5126,
			"count":13566,
			"type":"VEC3"
		},
		{
			"bufferView":221,
			"componentType":5126,
			"count":13566,
			"type":"VEC2"
		},
		{
			"bufferView":222,
			"componentType":5123,
			"count":65778,
			"type":"SCALAR"
		},
		{
			"bufferView":223,
			"componentType":5126,
			"count":4082,
			"max":[
				-36.37329864501953,
				5.8653998374938965,
				14.748000144958496
			],
			"min":[
				-40.48550033569336,
				-5.8653998374938965,
				7.279399871826172
			],
			"type":"VEC3"
		},
		{
			"bufferView":224,
			"componentType":5126,
			"count":4082,
			"type":"VEC3"
		},
		{
			"bufferView":225,
			"componentType":5126,
			"count":4082,
			"type":"VEC2"
		},
		{
			"bufferView":226,
			"componentType":5123,
			"count":18288,
			"type":"SCALAR"
		},
		{
			"bufferView":227,
			"componentType":5126,
			"count":31762,
			"max":[
				-21.81279945373535,
				6.000800132751465,
				14.630900382995605
			],
			"min":[
				-68.89730072021484,
				-6.189000129699707,
				1.5608999729156494
			],
			"type":"VEC3"
		},
		{
			"bufferView":228,
			"componentType":5126,
			"count":31762,
			"type":"VEC3"
		},
		{
			"bufferView":229,
			"componentType":5126,
			"count":31762,
			"type":"VEC2"
		},
		{
			"bufferView":230,
			"componentType":5123,
			"count":163680,
			"type":"SCALAR"
		},
		{
			"bufferView":231,
			"componentType":5126,
			"count":8912,
			"max":[
				-19.54360008239746,
				6.188799858093262,
				12.43910026550293
			],
			"min":[
				-40.85329818725586,
				-6.442399978637695,
				6.156499862670898
			],
			"type":"VEC3"
		},
		{
			"bufferView":232,
			"componentType":5126,
			"count":8912,
			"type":"VEC3"
		},
		{
			"bufferView":233,
			"componentType":5126,
			"count":8912,
			"type":"VEC2"
		},
		{
			"bufferView":234,
			"componentType":5123,
			"count":48318,
			"type":"SCALAR"
		},
		{
			"bufferView":235,
			"componentType":5126,
			"count":276,
			"max":[
				-39.16310119628906,
				4.524799823760986,
				14.663000106811523
			],
			"min":[
				-54.07630157470703,
				-4.513599872589111,
				-14.75730037689209
			],
			"type":"VEC3"
		},
		{
			"bufferView":236,
			"componentType":5126,
			"count":276,
			"type":"VEC3"
		},
		{
			"bufferView":237,
			"componentType":5126,
			"count":276,
			"type":"VEC2"
		},
		{
			"bufferView":238,
			"componentType":5123,
			"count":1188,
			"type":"SCALAR"
		},
		{
			"bufferView":239,
			"componentType":5126,
			"count":15898,
			"max":[
				57.826499938964844,
				-21.079700469970703,
				-1.1258000135421753
			],
			"min":[
				-22.06760025024414,
				-31.114700317382812,
				-13.950599670410156
			],
			"type":"VEC3"
		},
		{
			"bufferView":240,
			"componentType":5126,
			"count":15898,
			"type":"VEC3"
		},
		{
			"bufferView":241,
			"componentType":5126,
			"count":15898,
			"type":"VEC2"
		},
		{
			"bufferView":242,
			"componentType":5126,
			"count":15898,
			"max":[
				57.826499938964844,
				31.114700317382812,
				-1.1258000135421753
			],
			"min":[
				-22.06760025024414,
				21.079700469970703,
				-13.950599670410156
			],
			"type":"VEC3"
		},
		{
			"bufferView":243,
			"componentType":5126,
			"count":15898,
			"type":"VEC3"
		},
		{
			"bufferView":244,
			"componentType":5126,
			"count":15898,
			"type":"VEC2"
		}
	],
	"bufferViews":[
		{
			"buffer":0,
			"byteLength":190776,
			"byteOffset":0,
			"target":34962
		},
		{
			"buffer":0,
			"byteLength":190776,
			"byteOffset":190776,
			"target":34962
		},
		{
			"buffer":0,
			"byteLength":127184,
			"byteOffset":381552,
			"target":34962
		},
		{
			"buffer":0,
			"byteLength":171072,
			"byteOffset":508736,
			"target":34963
		},
		{
			"buffer":0,
			"byteLength":78840,
			"byteOffset":679808,
			"target":34962
		},
		{
			"buffer":0,
			"byteLength":78840,
			"byteOffset":758648,
			"target":34962
		},
		{
			"buffer":0,
			"byteLength":52560,
			"byteOffset":837488,
			"target":34962
		},
		{
			"buffer":0,
			"byteLength":63984,
			"byteOffset":890048,
			"target":34963
		},
		{
			"buffer":0,
			"byteLength":78840,
			"byteOffset":954032,
			"target":34962
		},
		{
			"buffer":0,
			"byteLength":78840,
			"byteOffset":1032872,
			"target":34962
		},
		{
			"buffer":0,
			"byteLength":52560,
			"byteOffset":1111712,
			"target":34962
		},
		{
			"buffer":0,
			"byteLength":95208,
			"byteOffset":1164272,
			"target":34962
		},
		{
			"buffer":0,
			"byteLength":95208,
			"byteOffset":1259480,
			"target":34962
		},
		{
			"buffer":0,
			"byteLength":63472,
			"byteOffset":1354688,
			"target":34962
		},
		{
			"buffer":0,
			"byteLength":76896,
			"byteOffset":1418160,
			"target":34963
		},
		{
			"buffer":0,
			"byteLength":94080,
			"byteOffset":1495056,
			"target":34962
		},
		{
			"buffer":0,
			"byteLength":94080,
			"byteOffset":1589136,
			"target":34962
		},
		{
			"buffer":0,
			"byteLength":62720,
			"byteOffset":1683216,
			"target":34962
		},
		{
			"buffer":0,
			"byteLength":76212,
			"byteOffset":1745936,
			"target":34963
		},
		{
			"buffer":0,
			"byteLength":93900,
			"byteOffset":1822148,
			"target":34962
		},
		{
			"buffer":0,
			"byteLength":93900,
			"byteOffset":1916048,
			"target":34962
		},
		{
			"buffer":0,
			"byteLength":62600,
			"byteOffset":2009948,
			"target":34962
		},
		{
			"buffer":0,
			"byteLength":76212,
			"byteOffset":2072548,
			"target":34963
		},
		{
			"buffer":0,
			"byteLength":93912,
			"byteOffset":2148760,
			"target":34962
		},
		{
			"buffer":0,
			"byteLength":93912,
			"byteOffset":2242672,
			"target":34962
		},
		{
			"buffer":0,
			"byteLength":62608,
			"byteOffset":2336584,
			"target":34962
		},
		{
			"buffer":0,
			"byteLength":76212,
			"byteOffset":2399192,
			"target":34963
		},
		{
			"buffer":0,
			"byteLength":93336,
			"byteOffset":2475404,
			"target":34962
		},
		{
			"buffer":0,
			"byteLength":93336,
			"byteOffset":2568740,
			"target":34962
		},
		{
			"buffer":0,
			"byteLength":62224,
			"byteOffset":2662076,
			"target":34962
		},
		{
			"buffer":0,
			"byteLength":75756,
			"byteOffset":2724300,
			"target":34963
		},
		{
			"buffer":0,
			"byteLength":62112,
			"byteOffset":2800056,
			"target":34962
		},
		{
			"buffer":0,
			"byteLength":62112,
			"byteOffset":2862168,
			"target":34962
		},
		{
			"buffer":0,
			"byteLength":41408,
			"byteOffset":2924280,
			"target":34962
		},
		{
			"buffer":0,
			"byteLength":50124,
			"byteOffset":2965688,
			"target":34963
		},
		{
			"buffer":0,
			"byteLength":63060,
			"byteOffset":3015812,
			"target":34962
		},
		{
			"buffer":0,
			"byteLength":63060,
			"byteOffset":3078872,
			"target":34962
		},
		{
			"buffer":0,
			"byteLength":42040,
			"byteOffset":3141932,
			"target":34962
		},
		{
			"buffer":0,
			"byteLength":50580,
			"byteOffset":3183972,
			"target":34963
		},
		{
			"buffer":0,
			"byteLength":73704,
			"byteOffset":3234552,
			"target":34962
		},
		{
			"buffer":0,
			"byteLength":73704,
			"byteOffset":3308256,
			"target":34962
		},
		{
			"buffer":0,
			"byteLength":49136,
			"byteOffset":3381960,
			"target":34962
		},
		{
			"buffer":0,
			"byteLength":68604,
			"byteOffset":3431096,
			"target":34963
		},
		{
			"buffer":0,
			"byteLength":93084,
			"byteOffset":3499700,
			"target":34962
		},
		{
			"buffer":0,
			"byteLength":93084,
			"byteOffset":3592784,
			"target":34962
		},
		{
			"buffer":0,
			"byteLength":62056,
			"byteOffset":3685868,
			"target":34962
		},
		{
			"buffer":0,
			"byteLength":75528,
			"byteOffset":3747924,
			"target":34963
		},
		{
			"buffer":0,
			"byteLength":139764,
			"byteOffset":3823452,
			"target":34962
		},
		{
			"buffer":0,
			"byteLength":139764,
			"byteOffset":3963216,
			"target":34962
		},
		{
			"buffer":0,
			"byteLength":93176,
			"byteOffset":4102980,
			"target":34962
		},
		{
			"buffer":0,
			"byteLength":122676,
			"byteOffset":4196156,
			"target":34963
		},
		{
			"buffer":0,
			"byteLength":258396,
			"byteOffset":4318832,
			"target":34962
		},
		{
			"buffer":0,
			"byteLength":258396,
			"byteOffset":4577228,
			"target":34962
		},
		{
			"buffer":0,
			"byteLength":172264,
			"byteOffset":4835624,
			"target":34962
		},
		{
			"buffer":0,
			"byteLength":220740,
			"byteOffset":5007888,
			"target":34963
		},
		{
			"buffer":0,
			"byteLength":26952,
			"byteOffset":5228628,
			"target":34962
		},
		{
			"buffer":0,
			"byteLength":26952,
			"byteOffset":5255580,
			"target":34962
		},
		{
			"buffer":0,
			"byteLength":17968,
			"byteOffset":5282532,
			"target":34962
		},
		{
			"buffer":0,
			"byteLength":23640,
			"byteOffset":5300500,
			"target":34963
		},
		{
			"buffer":0,
			"byteLength":82740,
			"byteOffset":5324140,
			"target":34962
		},
		{
			"buffer":0,
			"byteLength":82740,
			"byteOffset":5406880,
			"target":34962
		},
		{
			"buffer":0,
			"byteLength":55160,
			"byteOffset":5489620,
			"target":34962
		},
		{
			"buffer":0,
			"byteLength":69096,
			"byteOffset":5544780,
			"target":34963
		},
		{
			"buffer":0,
			"byteLength":102792,
			"byteOffset":5613876,
			"target":34962
		},
		{
			"buffer":0,
			"byteLength":102792,
			"byteOffset":5716668,
			"target":34962
		},
		{
			"buffer":0,
			"byteLength":68528,
			"byteOffset":5819460,
			"target":34962
		},
		{
			"buffer":0,
			"byteLength":89268,
			"byteOffset":5887988,
			"target":34963
		},
		{
			"buffer":0,
			"byteLength":117180,
			"byteOffset":5977256,
			"target":34962
		},
		{
			"buffer":0,
			"byteLength":117180,
			"byteOffset":6094436,
			"target":34962
		},
		{
			"buffer":0,
			"byteLength":78120,
			"byteOffset":6211616,
			"target":34962
		},
		{
			"buffer":0,
			"byteLength":95640,
			"byteOffset":6289736,
			"target":34963
		},
		{
			"buffer":0,
			"byteLength":72816,
			"byteOffset":6385376,
			"target":34962
		},
		{
			"buffer":0,
			"byteLength":72816,
			"byteOffset":6458192,
			"target":34962
		},
		{
			"buffer":0,
			"byteLength":48544,
			"byteOffset":6531008,
			"target":34962
		},
		{
			"buffer":0,
			"byteLength":62820,
			"byteOffset":6579552,
			"target":34963
		},
		{
			"buffer":0,
			"byteLength":115704,
			"byteOffset":6642372,
			"target":34962
		},
		{
			"buffer":0,
			"byteLength":115704,
			"byteOffset":6758076,
			"target":34962
		},
		{
			"buffer":0,
			"byteLength":77136,
			"byteOffset":6873780,
			"target":34962
		},
		{
			"buffer":0,
			"byteLength":97872,
			"byteOffset":6950916,
			"target":34963
		},
		{
			"buffer":0,
			"byteLength":108864,
			"byteOffset":7048788,
			"target":34962
		},
		{
			"buffer":0,
			"byteLength":108864,
			"byteOffset":7157652,
			"target":34962
		},
		{
			"buffer":0,
			"byteLength":72576,
			"byteOffset":7266516,
			"target":34962
		},
		{
			"buffer":0,
			"byteLength":94044,
			"byteOffset":7339092,
			"target":34963
		},
		{
			"buffer":0,
			"byteLength":541464,
			"byteOffset":7433136,
			"target":34962
		},
		{
			"buffer":0,
			"byteLength":541464,
			"byteOffset":7974600,
			"target":34962
		},
		{
			"buffer":0,
			"byteLength":360976,
			"byteOffset":8516064,
			"target":34962
		},
		{
			"buffer":0,
			"byteLength":370260,
			"byteOffset":8877040,
			"target":34963
		},
		{
			"buffer":0,
			"byteLength":82092,
			"byteOffset":9247300,
			"target":34962
		},
		{
			"buffer":0,
			"byteLength":82092,
			"byteOffset":9329392,
			"target":34962
		},
		{
			"buffer":0,
			"byteLength":54728,
			"byteOffset":9411484,
			"target":34962
		},
		{
			"buffer":0,
			"byteLength":72240,
			"byteOffset":9466212,
			"target":34963
		},
		{
			"buffer":0,
			"byteLength":84552,
			"byteOffset":9538452,
			"target":34962
		},
		{
			"buffer":0,
			"byteLength":84552,
			"byteOffset":9623004,
			"target":34962
		},
		{
			"buffer":0,
			"byteLength":56368,
			"byteOffset":9707556,
			"target":34962
		},
		{
			"buffer":0,
			"byteLength":67248,
			"byteOffset":9763924,
			"target":34963
		},
		{
			"buffer":0,
			"byteLength":228324,
			"byteOffset":9831172,
			"target":34962
		},
		{
			"buffer":0,
			"byteLength":228324,
			"byteOffset":10059496,
			"target":34962
		},
		{
			"buffer":0,
			"byteLength":152216,
			"byteOffset":10287820,
			"target":34962
		},
		{
			"buffer":0,
			"byteLength":182514,
			"byteOffset":10440036,
			"target":34963
		},
		{
			"buffer":0,
			"byteLength":127764,
			"byteOffset":10622552,
			"target":34962
		},
		{
			"buffer":0,
			"byteLength":127764,
			"byteOffset":10750316,
			"target":34962
		},
		{
			"buffer":0,
			"byteLength":85176,
			"byteOffset":10878080,
			"target":34962
		},
		{
			"buffer":0,
			"byteLength":105576,
			"byteOffset":10963256,
			"target":34963
		},
		{
			"buffer":0,
			"byteLength":101640,
			"byteOffset":11068832,
			"target":34962
		},
		{
			"buffer":0,
			"byteLength":101640,
			"byteOffset":11170472,
			"target":34962
		},
		{
			"buffer":0,
			"byteLength":67760,
			"byteOffset":11272112,
			"target":34962
		},
		{
			"buffer":0,
			"byteLength":86280,
			"byteOffset":11339872,
			"target":34963
		},
		{
			"buffer":0,
			"byteLength":108144,
			"byteOffset":11426152,
			"target":34962
		},
		{
			"buffer":0,
			"byteLength":108144,
			"byteOffset":11534296,
			"target":34962
		},
		{
			"buffer":0,
			"byteLength":72096,
			"byteOffset":11642440,
			"target":34962
		},
		{
			"buffer":0,
			"byteLength":95796,
			"byteOffset":11714536,
			"target":34963
		},
		{
			"buffer":0,
			"byteLength":49788,
			"byteOffset":11810332,
			"target":34962
		},
		{
			"buffer":0,
			"byteLength":49788,
			"byteOffset":11860120,
			"target":34962
		},
		{
			"buffer":0,
			"byteLength":33192,
			"byteOffset":11909908,
			"target":34962
		},
		{
			"buffer":0,
			"byteLength":41004,
			"byteOffset":11943100,
			"target":34963
		},
		{
			"buffer":0,
			"byteLength":99936,
			"byteOffset":11984104,
			"target":34962
		},
		{
			"buffer":0,
			"byteLength":99936,
			"byteOffset":12084040,
			"target":34962
		},
		{
			"buffer":0,
			"byteLength":66624,
			"byteOffset":12183976,
			"target":34962
		},
		{
			"buffer":0,
			"byteLength":80460,
			"byteOffset":12250600,
			"target":34963
		},
		{
			"buffer":0,
			"byteLength":70872,
			"byteOffset":12331060,
			"target":34962
		},
		{
			"buffer":0,
			"byteLength":70872,
			"byteOffset":12401932,
			"target":34962
		},
		{
			"buffer":0,
			"byteLength":47248,
			"byteOffset":12472804,
			"target":34962
		},
		{
			"buffer":0,
			"byteLength":59196,
			"byteOffset":12520052,
			"target":34963
		},
		{
			"buffer":0,
			"byteLength":127764,
			"byteOffset":12579248,
			"target":34962
		},
		{
			"buffer":0,
			"byteLength":127764,
			"byteOffset":12707012,
			"target":34962
		},
		{
			"buffer":0,
			"byteLength":85176,
			"byteOffset":12834776,
			"target":34962
		},
		{
			"buffer":0,
			"byteLength":105576,
			"byteOffset":12919952,
			"target":34963
		},
		{
			"buffer":0,
			"byteLength":802728,
			"byteOffset":13025528,
			"target":34962
		},
		{
			"buffer":0,
			"byteLength":802728,
			"byteOffset":13828256,
			"target":34962
		},
		{
			"buffer":0,
			"byteLength":535152,
			"byteOffset":14630984,
			"target":34962
		},
		{
			"buffer":0,
			"byteLength":1178472,
			"byteOffset":15166136,
			"target":34963
		},
		{
			"buffer":0,
			"byteLength":106548,
			"byteOffset":16344608,
			"target":34962
		},
		{
			"buffer":0,
			"byteLength":106548,
			"byteOffset":16451156,
			"target":34962
		},
		{
			"buffer":0,
			"byteLength":71032,
			"byteOffset":16557704,
			"target":34962
		},
		{
			"buffer":0,
			"byteLength":88704,
			"byteOffset":16628736,
			"target":34963
		},
		{
			"buffer":0,
			"byteLength":99936,
			"byteOffset":16717440,
			"target":34962
		},
		{
			"buffer":0,
			"byteLength":99936,
			"byteOffset":16817376,
			"target":34962
		},
		{
			"buffer":0,
			"byteLength":66624,
			"byteOffset":16917312,
			"target":34962
		},
		{
			"buffer":0,
			"byteLength":80460,
			"byteOffset":16983936,
			"target":34963
		},
		{
			"buffer":0,
			"byteLength":116784,
			"byteOffset":17064396,
			"target":34962
		},
		{
			"buffer":0,
			"byteLength":116784,
			"byteOffset":17181180,
			"target":34962
		},
		{
			"buffer":0,
			"byteLength":77856,
			"byteOffset":17297964,
			"target":34962
		},
		{
			"buffer":0,
			"byteLength":103140,
			"byteOffset":17375820,
			"target":34963
		},
		{
			"buffer":0,
			"byteLength":79500,
			"byteOffset":17478960,
			"target":34962
		},
		{
			"buffer":0,
			"byteLength":79500,
			"byteOffset":17558460,
			"target":34962
		},
		{
			"buffer":0,
			"byteLength":53000,
			"byteOffset":17637960,
			"target":34962
		},
		{
			"buffer":0,
			"byteLength":67980,
			"byteOffset":17690960,
			"target":34963
		},
		{
			"buffer":0,
			"byteLength":118908,
			"byteOffset":17758940,
			"target":34962
		},
		{
			"buffer":0,
			"byteLength":118908,
			"byteOffset":17877848,
			"target":34962
		},
		{
			"buffer":0,
			"byteLength":79272,
			"byteOffset":17996756,
			"target":34962
		},
		{
			"buffer":0,
			"byteLength":93300,
			"byteOffset":18076028,
			"target":34963
		},
		{
			"buffer":0,
			"byteLength":114708,
			"byteOffset":18169328,
			"target":34962
		},
		{
			"buffer":0,
			"byteLength":114708,
			"byteOffset":18284036,
			"target":34962
		},
		{
			"buffer":0,
			"byteLength":76472,
			"byteOffset":18398744,
			"target":34962
		},
		{
			"buffer":0,
			"byteLength":93672,
			"byteOffset":18475216,
			"target":34963
		},
		{
			"buffer":0,
			"byteLength":83280,
			"byteOffset":18568888,
			"target":34962
		},
		{
			"buffer":0,
			"byteLength":83280,
			"byteOffset":18652168,
			"target":34962
		},
		{
			"buffer":0,
			"byteLength":55520,
			"byteOffset":18735448,
			"target":34962
		},
		{
			"buffer":0,
			"byteLength":68232,
			"byteOffset":18790968,
			"target":34963
		},
		{
			"buffer":0,
			"byteLength":45456,
			"byteOffset":18859200,
			"target":34962
		},
		{
			"buffer":0,
			"byteLength":45456,
			"byteOffset":18904656,
			"target":34962
		},
		{
			"buffer":0,
			"byteLength":30304,
			"byteOffset":18950112,
			"target":34962
		},
		{
			"buffer":0,
			"byteLength":37980,
			"byteOffset":18980416,
			"target":34963
		},
		{
			"buffer":0,
			"byteLength":118872,
			"byteOffset":19018396,
			"target":34962
		},
		{
			"buffer":0,
			"byteLength":118872,
			"byteOffset":19137268,
			"target":34962
		},
		{
			"buffer":0,
			"byteLength":79248,
			"byteOffset":19256140,
			"target":34962
		},
		{
			"buffer":0,
			"byteLength":97188,
			"byteOffset":19335388,
			"target":34963
		},
		{
			"buffer":0,
			"byteLength":26172,
			"byteOffset":19432576,
			"target":34962
		},
		{
			"buffer":0,
			"byteLength":26172,
			"byteOffset":19458748,
			"target":34962
		},
		{
			"buffer":0,
			"byteLength":17448,
			"byteOffset":19484920,
			"target":34962
		},
		{
			"buffer":0,
			"byteLength":21624,
			"byteOffset":19502368,
			"target":34963
		},
		{
			"buffer":0,
			"byteLength":18912,
			"byteOffset":19523992,
			"target":34962
		},
		{
			"buffer":0,
			"byteLength":18912,
			"byteOffset":19542904,
			"target":34962
		},
		{
			"buffer":0,
			"byteLength":12608,
			"byteOffset":19561816,
			"target":34962
		},
		{
			"buffer":0,
			"byteLength":13602,
			"byteOffset":19574424,
			"target":34963
		},
		{
			"buffer":0,
			"byteLength":196104,
			"byteOffset":19588028,
			"target":34962
		},
		{
			"buffer":0,
			"byteLength":196104,
			"byteOffset":19784132,
			"target":34962
		},
		{
			"buffer":0,
			"byteLength":130736,
			"byteOffset":19980236,
			"target":34962
		},
		{
			"buffer":0,
			"byteLength":172944,
			"byteOffset":20110972,
			"target":34963
		},
		{
			"buffer":0,
			"byteLength":114084,
			"byteOffset":20283916,
			"target":34962
		},
		{
			"buffer":0,
			"byteLength":114084,
			"byteOffset":20398000,
			"target":34962
		},
		{
			"buffer":0,
			"byteLength":76056,
			"byteOffset":20512084,
			"target":34962
		},
		{
			"buffer":0,
			"byteLength":93000,
			"byteOffset":20588140,
			"target":34963
		},
		{
			"buffer":0,
			"byteLength":97560,
			"byteOffset":20681140,
			"target":34962
		},
		{
			"buffer":0,
			"byteLength":97560,
			"byteOffset":20778700,
			"target":34962
		},
		{
			"buffer":0,
			"byteLength":65040,
			"byteOffset":20876260,
			"target":34962
		},
		{
			"buffer":0,
			"byteLength":80136,
			"byteOffset":20941300,
			"target":34963
		},
		{
			"buffer":0,
			"byteLength":52092,
			"byteOffset":21021436,
			"target":34962
		},
		{
			"buffer":0,
			"byteLength":52092,
			"byteOffset":21073528,
			"target":34962
		},
		{
			"buffer":0,
			"byteLength":34728,
			"byteOffset":21125620,
			"target":34962
		},
		{
			"buffer":0,
			"byteLength":47664,
			"byteOffset":21160348,
			"target":34963
		},
		{
			"buffer":0,
			"byteLength":144168,
			"byteOffset":21208012,
			"target":34962
		},
		{
			"buffer":0,
			"byteLength":144168,
			"byteOffset":21352180,
			"target":34962
		},
		{
			"buffer":0,
			"byteLength":96112,
			"byteOffset":21496348,
			"target":34962
		},
		{
			"buffer":0,
			"byteLength":115716,
			"byteOffset":21592460,
			"target":34963
		},
		{
			"buffer":0,
			"byteLength":269616,
			"byteOffset":21708176,
			"target":34962
		},
		{
			"buffer":0,
			"byteLength":269616,
			"byteOffset":21977792,
			"target":34962
		},
		{
			"buffer":0,
			"byteLength":179744,
			"byteOffset":22247408,
			"target":34962
		},
		{
			"buffer":0,
			"byteLength":214194,
			"byteOffset":22427152,
			"target":34963
		},
		{
			"buffer":0,
			"byteLength":66720,
			"byteOffset":22641348,
			"target":34962
		},
		{
			"buffer":0,
			"byteLength":66720,
			"byteOffset":22708068,
			"target":34962
		},
		{
			"buffer":0,
			"byteLength":44480,
			"byteOffset":22774788,
			"target":34962
		},
		{
			"buffer":0,
			"byteLength":56424,
			"byteOffset":22819268,
			"target":34963
		},
		{
			"buffer":0,
			"byteLength":195828,
			"byteOffset":22875692,
			"target":34962
		},
		{
			"buffer":0,
			"byteLength":195828,
			"byteOffset":23071520,
			"target":34962
		},
		{
			"buffer":0,
			"byteLength":130552,
			"byteOffset":23267348,
			"target":34962
		},
		{
			"buffer":0,
			"byteLength":152202,
			"byteOffset":23397900,
			"target":34963
		},
		{
			"buffer":0,
			"byteLength":123156,
			"byteOffset":23550104,
			"target":34962
		},
		{
			"buffer":0,
			"byteLength":123156,
			"byteOffset":23673260,
			"target":34962
		},
		{
			"buffer":0,
			"byteLength":82104,
			"byteOffset":23796416,
			"target":34962
		},
		{
			"buffer":0,
			"byteLength":104910,
			"byteOffset":23878520,
			"target":34963
		},
		{
			"buffer":0,
			"byteLength":12108,
			"byteOffset":23983432,
			"target":34962
		},
		{
			"buffer":0,
			"byteLength":12108,
			"byteOffset":23995540,
			"target":34962
		},
		{
			"buffer":0,
			"byteLength":8072,
			"byteOffset":24007648,
			"target":34962
		},
		{
			"buffer":0,
			"byteLength":11268,
			"byteOffset":24015720,
			"target":34963
		},
		{
			"buffer":0,
			"byteLength":39960,
			"byteOffset":24026988,
			"target":34962
		},
		{
			"buffer":0,
			"byteLength":39960,
			"byteOffset":24066948,
			"target":34962
		},
		{
			"buffer":0,
			"byteLength":26640,
			"byteOffset":24106908,
			"target":34962
		},
		{
			"buffer":0,
			"byteLength":35376,
			"byteOffset":24133548,
			"target":34963
		},
		{
			"buffer":0,
			"byteLength":162792,
			"byteOffset":24168924,
			"target":34962
		},
		{
			"buffer":0,
			"byteLength":162792,
			"byteOffset":24331716,
			"target":34962
		},
		{
			"buffer":0,
			"byteLength":108528,
			"byteOffset":24494508,
			"target":34962
		},
		{
			"buffer":0,
			"byteLength":131556,
			"byteOffset":24603036,
			"target":34963
		},
		{
			"buffer":0,
			"byteLength":48984,
			"byteOffset":24734592,
			"target":34962
		},
		{
			"buffer":0,
			"byteLength":48984,
			"byteOffset":24783576,
			"target":34962
		},
		{
			"buffer":0,
			"byteLength":32656,
			"byteOffset":24832560,
			"target":34962
		},
		{
			"buffer":0,
			"byteLength":36576,
			"byteOffset":24865216,
			"target":34963
		},
		{
			"buffer":0,
			"byteLength":381144,
			"byteOffset":24901792,
			"target":34962
		},
		{
			"buffer":0,
			"byteLength":381144,
			"byteOffset":25282936,
			"target":34962
		},
		{
			"buffer":0,
			"byteLength":254096,
			"byteOffset":25664080,
			"target":34962
		},
		{
			"buffer":0,
			"byteLength":327360,
			"byteOffset":25918176,
			"target":34963
		},
		{
			"buffer":0,
			"byteLength":106944,
			"byteOffset":26245536,
			"target":34962
		},
		{
			"buffer":0,
			"byteLength":106944,
			"byteOffset":26352480,
			"target":34962
		},
		{
			"buffer":0,
			"byteLength":71296,
			"byteOffset":26459424,
			"target":34962
		},
		{
			"buffer":0,
			"byteLength":96636,
			"byteOffset":26530720,
			"target":34963
		},
		{
			"buffer":0,
			"byteLength":3312,
			"byteOffset":26627356,
			"target":34962
		},
		{
			"buffer":0,
			"byteLength":3312,
			"byteOffset":26630668,
			"target":34962
		},
		{
			"buffer":0,
			"byteLength":2208,
			"byteOffset":26633980,
			"target":34962
		},
		{
			"buffer":0,
			"byteLength":2376,
			"byteOffset":26636188,
			"target":34963
		},
		{
			"buffer":0,
			"byteLength":190776,
			"byteOffset":26638564,
			"target":34962
		},
		{
			"buffer":0,
			"byteLength":190776,
			"byteOffset":26829340,
			"target":34962
		},
		{
			"buffer":0,
			"byteLength":127184,
			"byteOffset":27020116,
			"target":34962
		},
		{
			"buffer":0,
			"byteLength":190776,
			"byteOffset":27147300,
			"target":34962
		},
		{
			"buffer":0,
			"byteLength":190776,
			"byteOffset":27338076,
			"target":34962
		},
		{
			"buffer":0,
			"byteLength":127184,
			"byteOffset":27528852,
			"target":34962
		}
	],
	"samplers":[
		{
			"magFilter":9729,
			"minFilter":9987
		}
	],
	"buffers":[
		{
			"byteLength":27656036,
			"uri":"Rafale.bin"
		}
	]
}
